<svg id="visual" viewBox="0 0 960 540" width="960" height="540" xmlns="http://www.w3.org/2000/svg" xmlns:xlink="http://www.w3.org/1999/xlink" version="1.1"><rect x="0" y="0" width="960" height="540" fill="#FFFFFF"></rect><path d="M0 101L17.8 101.5C35.7 102 71.3 103 106.8 99.8C142.3 96.7 177.7 89.3 213.2 87.2C248.7 85 284.3 88 320 82.3C355.7 76.7 391.3 62.3 426.8 61.2C462.3 60 497.7 72 533.2 72.8C568.7 73.7 604.3 63.3 640 69.2C675.7 75 711.3 97 746.8 102.2C782.3 107.3 817.7 95.7 853.2 85C888.7 74.3 924.3 64.7 942.2 59.8L960 55L960 0L942.2 0C924.3 0 888.7 0 853.2 0C817.7 0 782.3 0 746.8 0C711.3 0 675.7 0 640 0C604.3 0 568.7 0 533.2 0C497.7 0 462.3 0 426.8 0C391.3 0 355.7 0 320 0C284.3 0 248.7 0 213.2 0C177.7 0 142.3 0 106.8 0C71.3 0 35.7 0 17.8 0L0 0Z" fill="#888277" stroke-linecap="round" stroke-linejoin="miter"></path></svg>